<?xml version="1.0" encoding="UTF-8" standalone="no"?>
<svg
   version="1.1"
   id="svg2"
   xml:space="preserve"
   width="708.00043"
   height="400"
   viewBox="0 0 708.00043 400"
   xmlns="http://www.w3.org/2000/svg"
   xmlns:svg="http://www.w3.org/2000/svg"
   xmlns:rdf="http://www.w3.org/1999/02/22-rdf-syntax-ns#"
   xmlns:cc="http://creativecommons.org/ns#"
   xmlns:dc="http://purl.org/dc/elements/1.1/"><metadata
     id="metadata8"><rdf:RDF><cc:Work
         rdf:about=""><dc:format>image/svg+xml</dc:format><dc:type
           rdf:resource="http://purl.org/dc/dcmitype/StillImage" /></cc:Work></rdf:RDF></metadata><defs
     id="defs6" /><style
     id="css_customizable">
/* background: #212a3e */

#background {
    fill: #212a3e;
}
#logo {
    fill:#ffffff;
}
#logo__justctf__catfish__fish, #logo__justctf__justctf__ctf {
    fill:#4196bc;
}

</style><g
     id="logo"
     transform="translate(-76.142614,-1056.264)"
     style="fill:#ffffff"><g
       id="logo__justctf"><g
         id="logo__justctf__catfish"
         transform="translate(-930.14476,911.91571)"><g
           id="logo__justctf__catfish__cat"><path
             d="m 1290.1966,301.95686 c -14.0599,-6.81582 -27.287,-13.2278 -41.582,-20.15656 3.6167,-18.29052 0.246,-35.80276 -15.4511,-49.13732 -9.6027,-8.16041 -20.9742,-11.8445 -33.5484,-10.64226 -30.0648,2.87487 -45.5979,25.97282 -41.3513,60.73426 -15.3768,7.1098 -26.3785,11.88474 -40.997,20.73834 -7.2689,-16.40128 -8.552,-33.86091 -5.675,-51.78938 4.1971,-26.16313 8.4684,-59.92347 12.8604,-86.05412 0.6578,-3.91619 1.7147,-7.88654 3.3335,-11.49947 4.211,-9.40598 11.7972,-10.96719 19.0059,-3.49533 5.9891,6.20618 10.7974,21.14993 16.7231,27.42574 1.724,1.8258 5.9149,3.05589 8.2439,2.30081 21.0193,-6.80653 41.8235,-6.87151 62.872,-0.0758 2.4762,0.79995 6.9177,-0.74424 8.8615,-2.74334 5.3655,-5.51609 9.6399,-19.68309 14.8042,-25.41736 8.6727,-9.63497 17.9999,-8.11863 21.3689,4.29529 3.2128,11.83986 4.2095,31.88657 6.2677,44.04673 3.2887,19.43088 6.8729,38.81224 9.9093,58.28025 2.3306,14.94219 -0.5774,29.27474 -5.6456,43.18953"
             style="fill-opacity:1;fill-rule:nonzero;stroke:none;stroke-width:0.154744"
             id="logo__justctf__catfish__cat__head" /><path
             d="m 1268.1714,474.18734 c 11.268,-17.80467 16.1057,-35.52734 14.3105,-54.99071 -3.8628,-41.91611 -40.463,-73.05225 -83.7984,-70.97423 -40.9367,1.96351 -74.4201,37.73997 -74.1988,79.28473 0.2214,41.88052 33.4928,68.33919 74.6553,69.03547 74.2189,1.25795 97.5379,0.78912 171.7707,1.4916 7.3819,0.0696 14.9186,0.34814 22.1303,1.81497 21.078,4.29063 31.9112,22.73743 26.3708,44.45366 -19.3139,0 -38.7359,0.11454 -58.158,-0.0201 -70.2154,-0.48585 -89.5137,-0.031 -159.7104,-1.19296 -70.4953,-1.16821 -124.7118,-48.59886 -123.5449,-118.97738 1.0384,-62.68539 51.813,-117.06803 114.035,-122.1385 64.5125,-5.25769 122.409,37.68581 134.8098,99.79253 4.4648,22.34287 3.1648,44.22002 -3.8752,65.84186 -1.3433,4.12353 -2.911,6.84676 -8.2053,6.71215 -14.8289,-0.38064 -29.6732,-0.13307 -46.5914,-0.13307"
             style="fill-opacity:1;fill-rule:nonzero;stroke:none;stroke-width:0.154744"
             id="logo__justctf__catfish__cat__body" /></g><g
           id="logo__justctf__catfish__fish"
           style="fill:#4196bc"><path
             d="m 1047.2635,314.47444 c 0.4736,-5.95552 5.6859,-10.39935 11.6425,-9.92742 5.9566,0.47193 10.4013,5.68475 9.9293,11.64027 -0.4735,5.95553 -5.6858,10.39934 -11.6425,9.92741 -5.9566,-0.47191 -10.4012,-5.68473 -9.9293,-11.64026 z m -40.9752,14.83543 c -0.2121,24.5555 36.0539,48.95163 56.9076,62.57089 7.9376,-37.71676 36.5631,-71.25429 36.5631,-71.25429 -6.8511,-19.68464 -9.2963,-26.64125 -8.6757,-48.94699 -50.8164,13.01115 -84.6,35.23335 -84.795,57.63039"
             style="fill-opacity:1;fill-rule:nonzero;stroke:none;stroke-width:0.154744"
             id="logo__justctf__catfish__fish__head" /><path
             d="m 1323.3241,340.20743 -16.0979,-21.64195 c 1.9715,-7.23204 6.5663,-25.93105 7.7549,-41.04189 9.5454,4.82445 18.7412,9.2791 26.9433,12.77443 20.2579,8.62615 26.3243,-42.09095 74.4387,-56.70202 9.4402,-2.86404 11.9937,7.21502 6.9331,12.55008 -15.1353,15.99279 -19.6698,28.66975 -19.3912,50.88729 0.4798,36.49132 5.9273,51.29579 20.4436,66.45769 6.407,6.68894 2.8939,14.40838 -11.576,11.8863 -33.0407,-5.75593 -44.2143,-27.20292 -67.5673,-41.71961 -3.8535,-2.40139 -11.7307,0.60808 -21.8812,6.54968"
             style="fill-opacity:1;fill-rule:nonzero;stroke:none;stroke-width:0.154744"
             id="logo__justctf__catfish__fish__tail" /></g></g><g
         id="logo__justctf__justctf"
         transform="translate(-930.14476,911.91571)"><g
           id="logo__justctf__justctf__just"><path
             d="m 1337.9936,196.80297 h -22.9708 c -0.8589,-0.0711 -1.6466,-0.42859 -2.2903,-1.07381 -0.6454,-0.64368 -0.9302,-1.43126 -0.9302,-2.36117 v -12.23598 c 0,-0.50132 0.2136,-0.93147 0.5727,-1.2889 0.3575,-0.35742 0.7876,-0.50132 1.2875,-0.50132 h 5.0823 c 0.4998,0 0.8589,0.1439 1.2164,0.50132 0.359,0.35743 0.5726,0.78758 0.5726,1.2889 v 5.07975 c 0,0.50132 0.2151,0.92993 0.5725,1.2889 0.3592,0.35742 0.7878,0.57095 1.2892,0.57095 h 6.8698 v -41.86195 c 0,-0.50132 0.2165,-0.92993 0.5725,-1.2889 0.356,-0.35742 0.7893,-0.57249 1.2846,-0.57249 h 5.0914 c 0.4953,0 0.9286,0.21507 1.2846,0.57249 0.3559,0.35897 0.4952,0.78758 0.4952,1.2889 v 50.59331"
             style="fill-opacity:1;fill-rule:nonzero;stroke:none;stroke-width:0.154744"
             id="logo__justctf__justctf__just__j" /><path
             d="m 1344.8803,146.20966 c 0,-0.50132 0.2012,-0.92993 0.5726,-1.2889 0.356,-0.35742 0.7738,-0.57249 1.2845,-0.57249 h 5.076 c 0.5107,0 0.9286,0.21507 1.2846,0.57249 0.294,0.35897 0.4333,0.78758 0.4333,1.2889 v 40.0021 c 0,0.50132 0.2167,0.92993 0.6499,1.2889 0.356,0.4286 0.7893,0.64368 1.2846,0.64368 h 6.9486 v -41.93468 c 0,-0.50132 0.1393,-0.92993 0.4179,-1.2889 0.4333,-0.35742 0.8666,-0.57249 1.3,-0.57249 h 5.076 c 0.5725,0 1.0059,0.21507 1.2845,0.57249 0.3559,0.35897 0.5726,0.78758 0.5726,1.2889 v 50.59331 h -19.4685 c -1.9346,-0.0711 -3.575,-0.85874 -4.7976,-2.21881 -1.2844,-1.35853 -1.919,-2.93367 -1.919,-4.79351 v -43.58099"
             style="fill-opacity:1;fill-rule:nonzero;stroke:none;stroke-width:0.154744"
             id="logo__justctf__justctf__just__u" /><path
             d="m 1395.2695,156.58579 c 0,-0.92992 -0.294,-1.78867 -0.9286,-2.43234 -0.6499,-0.64522 -1.4392,-0.93148 -2.3677,-1.00265 0,0 -2.863,0 -8.5891,0 0.8667,0.0711 1.5785,0.4286 2.2131,1.07228 0.6499,0.64522 0.9439,1.43279 0.9439,2.36271 v 10.80628 c 0.062,0.8572 0.356,1.57359 0.9906,2.21727 0.65,0.64366 1.3618,0.92992 2.2904,1.00264 h 7.3045 c 0.078,0 0.1393,0 0.1393,0 1.9345,0.0711 3.513,0.78757 4.7976,2.14609 1.2844,1.36007 1.9344,3.00639 1.9344,4.93741 v 12.02245 c 0,0.57404 -0.078,1.14499 -0.1393,1.64631 -0.3559,1.50242 -1.1452,2.79132 -2.3678,3.79241 -1.2071,1.00265 -2.6464,1.57515 -4.2249,1.64632 h -6.3606 -6.4534 l -1.2071,-0.21507 c -1.2844,-0.28625 -2.4297,-0.92993 -3.3582,-1.85984 -0.944,-0.92992 -1.5785,-2.07646 -1.8725,-3.36382 -0.1393,-0.50132 -0.2167,-1.07227 -0.2167,-1.64631 v -4.14983 c 0,-0.50132 0.2167,-1.00265 0.5725,-1.36007 0.356,-0.35743 0.7893,-0.50132 1.3,-0.50132 h 5.0761 c 0.4952,0 0.8512,0.14389 1.2226,0.50132 0.356,0.35742 0.5725,0.85875 0.5725,1.36007 v 0.64366 c 0,0.50132 0.2013,0.92993 0.5727,1.2889 0.3559,0.35742 0.7737,0.57095 1.2844,0.57095 h 5.0762 c 0.5107,0 0.9285,-0.21353 1.2844,-0.57095 0.3714,-0.35897 0.5107,-0.78758 0.5107,-1.2889 v -5.07975 c 0,-0.50132 -0.1393,-0.93147 -0.5107,-1.2889 -0.3559,-0.35742 -0.7737,-0.50132 -1.2844,-0.50132 h -9.0225 l -1.2071,-0.21507 c -1.2844,-0.2847 -2.4297,-0.92992 -3.3582,-1.85985 -0.944,-0.92991 -1.5785,-2.07491 -1.8725,-3.3638 -0.1393,-0.49978 -0.2167,-1.07383 -0.2167,-1.64632 v -20.75227 c 0,-0.64366 0.078,-1.21617 0.2167,-1.71749 0.294,-1.28734 0.9285,-2.36116 1.8725,-3.29109 0.9285,-0.93146 2.0738,-1.57514 3.3582,-1.93256 l 1.2071,-0.21507 h 0.2167 6.2987 6.2986 c 1.9345,0.1439 3.513,0.85875 4.7976,2.21881 1.2844,1.36007 1.9344,3.00638 1.9344,4.9374 v 8.51629 c 0,0.50133 -0.1393,0.92992 -0.4952,1.28735 -0.356,0.35898 -0.7274,0.50132 -1.2227,0.5725 h -5.2307 c -0.4953,-0.0711 -0.9286,-0.21352 -1.2845,-0.5725 -0.356,-0.35743 -0.4953,-0.78602 -0.4953,-1.28735 v -3.43498"
             style="fill-opacity:1;fill-rule:nonzero;stroke:none;stroke-width:0.154744"
             id="logo__justctf__justctf__just__s" /><path
             d="m 1433.6341,144.34827 c 0.4951,0.0728 0.8666,0.21507 1.2225,0.57249 0.2786,0.35897 0.4179,0.78758 0.4179,1.2889 v 5.07975 c 0,0.50132 -0.1393,0.85875 -0.4179,1.21772 -0.3559,0.35742 -0.7274,0.5725 -1.2225,0.5725 h -10.5236 c 0.078,0 0.1393,0 0.1393,0 0.944,0.0711 1.7178,0.4286 2.3678,1.07382 0.65,0.64367 0.9285,1.42969 0.9285,2.35961 v 38.42852 c 0,0.50132 -0.1392,0.93147 -0.4952,1.2889 -0.3559,0.35742 -0.7893,0.57249 -1.2844,0.57249 h -5.0916 c -0.4953,0 -0.9286,-0.21507 -1.2846,-0.57249 -0.3558,-0.35743 -0.5725,-0.78758 -0.5725,-1.2889 v -41.86195 h -7.0106 c -0.5107,0 -0.8666,-0.21508 -1.2225,-0.5725 -0.356,-0.35897 -0.4953,-0.7164 -0.4953,-1.21772 v -5.07975 c 0,-0.50132 0.1393,-0.92993 0.4953,-1.2889 0.294,-0.35742 0.65,-0.49978 1.0678,-0.57249 h 22.9816"
             style="fill-opacity:1;fill-rule:nonzero;stroke:none;stroke-width:0.154744"
             id="logo__justctf__justctf__just__t" /></g><g
           id="logo__justctf__justctf__ctf"
           style="fill:#4196bc"><path
             d="m 1502.6097,183.2518 c -1.1143,0 -2.0583,-0.3172 -2.863,-1.1094 -0.7892,-0.79068 -1.0988,-1.74071 -1.0988,-2.84857 v -11.08325 c 0,-1.10785 -0.4797,-2.05944 -1.269,-2.85011 -0.7892,-0.79066 -1.7488,-1.26723 -2.8476,-1.26723 h -22.4863 c 2.0582,0.15782 3.7916,0.95004 5.0606,2.3751 1.4238,1.42505 2.2131,3.1673 2.2131,5.2252 v 65.54788 c 0,1.10786 0.325,2.0579 1.1142,2.85011 0.7893,0.79066 1.7487,1.26568 2.8475,1.26568 h 11.2509 c 1.0988,0 2.0584,-0.47502 2.8476,-1.26568 0.7893,-0.79221 1.269,-1.74225 1.269,-2.85011 v -11.24107 c 0,-1.10941 0.3096,-2.05789 1.0988,-2.85011 0.8047,-0.79222 1.7487,-1.10786 2.863,-1.10786 h 11.5604 c 1.0988,0 2.0584,0.31564 2.8476,1.10786 0.7893,0.79222 1.269,1.7407 1.269,2.85011 v 27.23232 c 0,0.47348 -0.1703,1.10786 -0.325,1.89853 -0.944,3.32512 -3.1725,5.22519 -6.4844,5.5424 h -47.6654 c -1.2691,0 -2.2285,-0.47503 -2.863,-1.26724 -0.7893,-0.63284 -1.2536,-1.58287 -1.2536,-2.8501 V 148.73638 c 0,-1.26723 0.4643,-2.21727 1.2536,-2.85011 0.6345,-0.79221 1.5939,-1.26723 2.863,-1.26723 h 47.1857 c 1.7333,0.15937 3.1725,0.79222 4.426,1.74225 1.1143,0.79221 2.0584,2.21727 2.5381,3.95797 0.1547,0.79222 0.325,1.42506 0.325,1.90007 v 27.0745 c 0,1.10786 -0.4797,2.05789 -1.269,2.84857 -0.7892,0.7922 -1.7488,1.1094 -2.8476,1.1094 h -11.5604"
             style="fill-opacity:1;fill-rule:nonzero;stroke:none;stroke-width:0.154744"
             id="logo__justctf__justctf__ctf__c" /><path
             d="m 1514.2011,285.98417 c 1.0988,0.15783 1.9035,0.47347 2.6928,1.26569 0.6345,0.79221 0.944,1.74225 0.944,2.85011 v 11.24106 c 0,1.10786 -0.3095,1.90008 -0.944,2.69229 -0.7893,0.79221 -1.594,1.26568 -2.6928,1.26568 h -23.2756 c 0.1547,0 0.3095,0 0.3095,0 2.0583,0.15937 3.807,0.95004 5.2308,2.3751 1.4238,1.42505 2.0583,3.1673 2.0583,5.22519 v 85.0221 c 0,1.10785 -0.325,2.05789 -1.1143,2.85011 -0.7893,0.7922 -1.7332,1.26567 -2.8475,1.26567 h -11.2509 c -1.0988,0 -2.0583,-0.47347 -2.8476,-1.26567 -0.7893,-0.79222 -1.269,-1.74226 -1.269,-2.85011 V 305.299 h -15.5067 c -1.1143,0 -1.9036,-0.47347 -2.6928,-1.26568 -0.8047,-0.79221 -1.1143,-1.58443 -1.1143,-2.69229 v -11.24106 c 0,-1.10786 0.3096,-2.0579 1.1143,-2.85011 0.6345,-0.79222 1.4238,-1.10786 2.3678,-1.26569 h 50.838"
             style="fill-opacity:1;fill-rule:nonzero;stroke:none;stroke-width:0.154744"
             id="logo__justctf__justctf__ctf__t" /><path
             d="m 1525.0497,440.89583 c 0,1.10941 -0.3096,2.05945 -0.9441,2.85011 -0.7893,0.79222 -1.594,1.10941 -2.6928,1.26879 h -42.4347 0.3096 c 1.9035,0.15627 3.6368,0.94848 5.0606,2.53136 1.4392,1.26723 2.0582,3.00948 2.0582,5.06738 v 31.19029 h 25.1792 c 0.9594,0 1.9036,0.31719 2.6928,1.10941 0.8047,0.78911 1.1143,1.7407 1.1143,2.84856 v 11.24106 c 0,1.10941 -0.3096,2.05791 -1.1143,2.69075 -0.7892,0.79221 -1.7334,1.26877 -2.6928,1.26877 h -25.1792 v 34.82953 c 0,0.95158 -0.4643,1.90161 -1.2535,2.69383 -0.8047,0.79066 -1.7487,1.26568 -2.863,1.26568 h -11.2354 c -0.9441,0 -1.9035,-0.47502 -2.6928,-1.26568 -0.7893,-0.79222 -1.2691,-1.74225 -1.2691,-2.69383 V 425.6968 h 53.9951 c 1.1143,0 2.0584,0.47657 2.8631,1.26878 0.7892,0.78912 1.0988,1.74071 1.0988,2.69073 v 11.23952"
             style="fill-opacity:1;fill-rule:nonzero;stroke:none;stroke-width:0.154744"
             id="logo__justctf__justctf__ctf__f" /></g></g></g><g
       transform="translate(-930.14476,911.91571)"
       id="logo__at_he_ish"><g
         id="logo__at_he_ish__at"><path
           id="logo__at_he_ish__at__a"
           style="fill-opacity:1;fill-rule:nonzero;stroke:none;stroke-width:0.154744"
           d="m 1569.7437,168.21058 c 0,-1.10785 -0.4797,-2.05944 -1.4237,-2.85011 -0.6345,-0.79066 -1.5785,-1.26723 -2.8476,-1.26723 h -22.4863 c 2.0582,0.15782 3.7916,0.95004 5.2153,2.53446 1.4393,1.42506 2.0584,3.16576 2.0584,5.22366 v 26.91667 c 0,0.9485 0.325,1.90008 1.1142,2.84856 0.7893,0.79222 1.9035,1.10941 3.0023,1.10941 h 11.0961 c 1.2691,0 2.2131,-0.31719 2.8476,-1.10941 0.944,-0.79066 1.4237,-1.7407 1.4237,-2.84856 z m 11.7153,-23.59154 h 0.325 c 2.0582,0.15937 3.6368,0.95004 4.9057,2.3751 1.4238,1.42505 2.2131,3.1673 2.2131,5.38301 v 103.86346 c 0,1.26567 -0.3095,2.37508 -1.0988,3.16575 -0.8047,0.79221 -1.7487,1.26724 -2.863,1.26724 h -11.0807 c -1.2689,0 -2.2131,-0.47503 -3.0023,-1.26724 -0.7893,-0.79067 -1.1143,-1.7407 -1.1143,-2.8501 v -30.39809 c 0,-1.26723 -0.4797,-2.21571 -1.4237,-2.8501 -0.6345,-0.95005 -1.5785,-1.42506 -2.8476,-1.42506 h -15.2126 v 34.67325 c 0,1.1094 -0.3096,2.05943 -1.0989,2.8501 -0.7892,0.79221 -1.9035,1.26724 -3.0177,1.26724 h -11.0808 c -1.0987,0 -2.0582,-0.47503 -2.8475,-1.26724 -0.7892,-0.79067 -1.2689,-1.90008 -1.2689,-3.16575 V 152.37715 c 0,-2.21571 0.6344,-3.95796 2.0582,-5.38301 1.4238,-1.42506 3.1725,-2.21573 5.2309,-2.3751 0.1547,0 0.1547,0 0.1547,0 h 43.0692" /><path
           id="logo__at_he_ish__at__t"
           style="fill-opacity:1;fill-rule:nonzero;stroke:none;stroke-width:0.154744"
           d="m 1652.5702,144.61904 c 1.0989,0.15937 1.8881,0.47502 2.6928,1.26723 0.6346,0.79222 0.9441,1.7407 0.9441,2.85011 v 11.24107 c 0,1.10786 -0.3095,1.90007 -0.9441,2.69073 -0.8047,0.79222 -1.5939,1.26724 -2.6928,1.26724 h -23.2755 c 0.1547,0 0.3095,0 0.3095,0 2.0583,0.15782 3.8071,0.95004 5.2308,2.37509 1.4238,1.42506 2.0583,3.16576 2.0583,5.22365 v 85.0221 c 0,1.1094 -0.325,2.05943 -1.1142,2.8501 -0.7893,0.79221 -1.7488,1.26724 -2.8477,1.26724 h -11.2508 c -1.0989,0 -2.0583,-0.47503 -2.8475,-1.26724 -0.7893,-0.79067 -1.2691,-1.7407 -1.2691,-2.8501 v -92.62084 h -15.5222 c -1.0989,0 -1.8881,-0.47502 -2.6774,-1.26724 -0.8047,-0.79066 -1.1142,-1.58287 -1.1142,-2.69073 v -11.24107 c 0,-1.10941 0.3095,-2.05789 1.1142,-2.85011 0.6191,-0.79221 1.4238,-1.10786 2.3678,-1.26723 h 50.838" /></g><g
         id="logo__at_he_ish__he"><path
           id="logo__at_he_ish__he__h"
           style="fill-opacity:1;fill-rule:nonzero;stroke:none;stroke-width:0.154744"
           d="m 1582.759,285.98417 c 1.1142,0 2.0582,0.47347 2.8475,1.26569 0.8047,0.79221 1.2689,1.74225 1.2689,2.85011 v 107.82142 c 0,1.10785 -0.4642,2.05789 -1.2689,2.85011 -0.7893,0.7922 -1.7333,1.26567 -2.8475,1.26567 h -11.2355 c -1.1142,0 -2.0583,-0.47347 -2.8476,-1.26567 -0.8047,-0.79222 -1.1143,-1.74226 -1.1143,-2.85011 v -30.55745 c 0,-1.10786 -0.4797,-2.05791 -1.2689,-2.85011 -0.7893,-0.79222 -1.7333,-1.10786 -2.8476,-1.10786 -15.0424,0 -22.4864,0 -22.4864,0 1.9036,0.15782 3.4821,0.79221 4.9059,2.05789 1.4238,1.26723 2.2131,2.85011 2.3832,4.75019 v 28.34017 c -0.1701,1.10787 -0.6344,1.90007 -1.4237,2.53292 -0.8048,0.63284 -1.5941,0.95003 -2.538,0.95003 h -11.2509 c -1.0988,0 -2.0584,-0.47347 -2.8476,-1.26567 -0.7893,-0.79222 -1.269,-1.74226 -1.269,-2.85011 V 290.09997 c 0,-1.10786 0.4797,-2.0579 1.269,-2.85011 0.7892,-0.79222 1.7488,-1.26569 2.8476,-1.26569 h 11.2509 c 1.0988,0 1.9035,0.47347 2.6928,1.26569 0.7892,0.79221 1.2689,1.74225 1.2689,2.85011 v 49.87382 c 0,1.10787 0.3096,2.0579 1.0989,2.85011 0.7892,0.79066 1.7488,1.10787 2.8475,1.26569 3.807,0.15937 7.6141,0.15937 11.4057,0 1.1142,-0.15782 2.0582,-0.47503 2.8475,-1.26569 0.8048,-0.79221 1.1142,-1.74224 1.1142,-2.85011 v -49.87382 c 0,-1.10786 0.3096,-2.0579 1.1143,-2.85011 0.7893,-0.79222 1.7334,-1.26569 2.8476,-1.26569 h 11.2355" /><path
           id="logo__at_he_ish__he__e"
           style="fill-opacity:1;fill-rule:nonzero;stroke:none;stroke-width:0.154744"
           d="m 1610.6308,305.299 c 0.1548,0 0.325,0 0.325,0 2.0583,0.15937 3.7916,0.79222 5.2153,2.21728 1.4239,1.58287 2.0584,3.32512 2.0584,5.38301 v 27.0745 c 0,1.10787 0.325,2.0579 1.1143,2.85011 0.7892,0.79066 1.7332,1.10787 3.0022,1.10787 h 20.9079 c 1.1142,0 1.9035,0.31719 2.6928,1.10785 0.7892,0.79067 1.2689,1.90008 1.2689,3.00793 v 11.24107 c 0,1.10941 -0.4797,2.0579 -1.2689,2.85011 -0.7893,0.79222 -1.5786,1.10787 -2.6928,1.10787 h -20.7376 c -1.269,0 -2.3833,0.31719 -3.1725,1.10941 -0.7893,0.79066 -1.1143,1.90007 -1.1143,3.16575 v 10.92542 c 0,1.26568 0.325,2.37355 1.1143,3.16575 0.7892,0.79222 1.9035,1.10941 3.1725,1.10941 h 30.3945 c 1.1142,0 2.2129,0.47347 3.0178,1.26569 0.7892,0.63284 1.0987,1.58442 1.0987,2.69074 v 11.40044 c 0,1.10785 -0.3095,2.05944 -1.0987,2.69229 -0.8049,0.7922 -1.9036,1.26567 -3.0178,1.26567 h -50.0333 c -1.1143,0 -2.0583,-0.47347 -2.6928,-1.26567 -0.7893,-0.63285 -1.269,-1.58444 -1.269,-2.69229 V 289.94215 c 0,-1.10787 0.4797,-2.05945 1.269,-2.69229 0.6345,-0.79222 1.5785,-1.26569 2.6928,-1.26569 h 50.0333 c 1.1142,0 2.2129,0.47347 3.0178,1.26569 0.7892,0.63284 1.0987,1.58442 1.0987,2.69229 v 11.39888 c 0,0.95004 -0.3095,1.74226 -0.944,2.53292 -0.7893,0.79222 -1.7488,1.26723 -2.8475,1.42505 h -42.605" /></g><g
         id="logo__at_he_ish__ish"><path
           id="logo__at_he_ish__ish__i"
           style="fill-opacity:1;fill-rule:nonzero;stroke:none;stroke-width:0.154744"
           d="m 1561.3095,537.63556 c 0,1.10786 -0.4643,2.05789 -1.2691,2.85011 -0.7893,0.79066 -1.5785,1.26568 -2.6772,1.26568 h -11.251 c -1.1143,0 -2.0583,-0.47502 -2.8475,-1.26568 -0.7893,-0.79222 -1.269,-1.74225 -1.269,-2.85011 V 429.81414 c 0,-1.10785 0.4797,-2.05944 1.269,-2.84856 0.7892,-0.79221 1.7332,-1.26878 2.8475,-1.26878 h 11.251 c 1.0987,0 1.8879,0.47657 2.6772,1.26878 0.8048,0.78912 1.2691,1.74071 1.2691,2.84856 v 107.82142" /><path
           id="logo__at_he_ish__ish__s"
           style="fill-opacity:1;fill-rule:nonzero;stroke:none;stroke-width:0.154744"
           d="m 1619.7461,452.7713 c 0,-2.05791 -0.6345,-3.95798 -2.0583,-5.38303 -1.4238,-1.42506 -3.1725,-2.05789 -5.2309,-2.21727 0,0 -6.3295,0 -19.0042,0 1.9035,0.15938 3.4821,0.95004 4.9213,2.37509 1.4238,1.42506 2.0582,3.1673 2.0582,5.22521 v 23.90718 c 0.1549,1.90007 0.7893,3.48295 2.2131,4.90801 1.4238,1.42505 3.0024,2.0579 5.0606,2.21727 h 16.1568 c 0.1547,0 0.3095,0 0.3095,0 4.2868,0.15782 7.7688,1.74224 10.6163,4.74863 2.8477,3.00948 4.2714,6.65026 4.2714,10.92543 v 26.59947 c 0,1.26723 -0.1548,2.53292 -0.3095,3.64233 -0.7892,3.32358 -2.5381,6.17369 -5.2308,8.39095 -2.6928,2.21573 -5.8499,3.48296 -9.3474,3.64078 h -14.0831 -14.2532 l -2.6928,-0.47502 c -2.8475,-0.63284 -5.3855,-2.05944 -7.4438,-4.11734 -2.0582,-2.0579 -3.482,-4.59082 -4.1166,-7.43937 -0.325,-1.10941 -0.4797,-2.3751 -0.4797,-3.64233 v -9.18316 c 0,-1.10787 0.4797,-2.21728 1.269,-3.00794 0.7892,-0.79067 1.7488,-1.10941 2.8476,-1.10941 h 11.2509 c 1.0988,0 1.9035,0.31874 2.6928,1.10941 0.7892,0.79066 1.2689,1.90007 1.2689,3.00794 v 1.42505 c 0,1.10785 0.4643,2.05944 1.2536,2.84855 0.8048,0.79222 1.7488,1.26879 2.863,1.26879 h 11.2355 c 1.1142,0 2.0582,-0.47657 2.8475,-1.26879 0.8048,-0.78911 1.1143,-1.7407 1.1143,-2.84855 v -11.24107 c 0,-1.10941 -0.3095,-2.0579 -1.1143,-2.85011 -0.7893,-0.79222 -1.7333,-1.10941 -2.8475,-1.10941 h -19.9484 l -2.6928,-0.47347 c -2.8475,-0.63439 -5.3855,-2.05789 -7.4438,-4.11734 -2.0582,-2.05789 -3.482,-4.59081 -4.1166,-7.44092 -0.325,-1.10787 -0.4797,-2.3751 -0.4797,-3.64233 v -45.91431 c 0,-1.42505 0.1547,-2.69228 0.4797,-3.79859 0.6346,-2.85011 2.0584,-5.22521 4.1166,-7.28464 2.0583,-2.05791 4.5963,-3.48141 7.4438,-4.27362 l 2.6928,-0.47657 h 0.4799 13.9282 13.9282 c 4.2868,0.3172 7.7688,1.90162 10.6163,4.90956 2.8477,3.00639 4.2714,6.6487 4.2714,10.92386 v 18.83982 c 0,1.10941 -0.3095,2.05944 -1.0987,2.85166 -0.7893,0.79066 -1.5941,1.10786 -2.6928,1.26568 h -11.5605 c -1.1142,-0.15782 -2.0583,-0.47502 -2.8476,-1.26568 -0.8047,-0.79222 -1.1142,-1.74225 -1.1142,-2.85166 v -7.59874" /><path
           id="logo__at_he_ish__ish__h"
           style="fill-opacity:1;fill-rule:nonzero;stroke:none;stroke-width:0.154744"
           d="m 1710.1712,425.6968 c 1.0988,0 2.0583,0.47657 2.8475,1.26878 0.7893,0.78912 1.2691,1.74071 1.2691,2.84856 v 107.82142 c 0,1.10786 -0.4798,2.05789 -1.2691,2.85011 -0.7892,0.79066 -1.7487,1.26568 -2.8475,1.26568 h -11.2509 c -1.1142,0 -2.0583,-0.47502 -2.8476,-1.26568 -0.7892,-0.79222 -1.1142,-1.74225 -1.1142,-2.85011 v -30.55745 c 0,-1.10941 -0.4643,-2.0579 -1.269,-2.85011 -0.7893,-0.79222 -1.7333,-1.10941 -2.8475,-1.10941 -15.0425,0 -22.4864,0 -22.4864,0 1.9035,0.15937 3.482,0.79222 4.9058,2.05945 1.4393,1.26723 2.2285,2.85011 2.3833,4.75018 v 28.34017 c -0.1548,1.10787 -0.6345,1.90008 -1.4237,2.53292 -0.7893,0.63284 -1.5941,0.95004 -2.5381,0.95004 h -11.2354 c -1.1143,0 -2.0583,-0.47502 -2.8631,-1.26568 -0.7893,-0.79222 -1.2535,-1.74225 -1.2535,-2.85011 V 429.81414 c 0,-1.10785 0.4642,-2.05944 1.2535,-2.84856 0.8048,-0.79221 1.7488,-1.26878 2.8631,-1.26878 h 11.2354 c 1.1143,0 1.9035,0.47657 2.6928,1.26878 0.7892,0.78912 1.269,1.74071 1.269,2.84856 v 49.87382 c 0,1.10787 0.3095,2.05791 1.1142,2.85011 0.7893,0.79067 1.7334,1.10632 2.8476,1.26569 3.7915,0.15782 7.5986,0.15782 11.4056,0 1.0989,-0.15937 2.0584,-0.47502 2.8477,-1.26569 0.7892,-0.7922 1.0987,-1.74224 1.0987,-2.85011 v -49.87382 c 0,-1.10785 0.325,-2.05944 1.1142,-2.84856 0.7893,-0.79221 1.7334,-1.26878 2.8476,-1.26878 h 11.2509" /></g></g></g></svg>
